# xmcd
#
# Track frame offsets: 
#        182
#        14257
#        27970
#        41382
#        55177
#        69970
#        83577
#        96120
#        109845
#        125130
#        137565
#        150517
#        165360
#        179572
#        191810
#        205552
#
# Disc length: 2911 seconds
#
# Revision: 6
# Processed by: cddbd v1.5.2PL0 Copyright (c) Steve Scherf et al.
# Submitted via: ExactAudioCopy v1.0b4
#
DISCID=c90b5d10
DTITLE=Roosevelt Sykes - The Blues Collection 30 - "44" Blues
DYEAR=1995
DGENRE=Blues
TTITLE0="44" Blues [mono]
TTITLE1=Boot That Thing [mono]
TTITLE2=All My Money Gone Blues [mono]
TTITLE3=The Way I Feel Blues [mono]
TTITLE4=Henry Ford Blues [mono]
TTITLE5=Poor Boy Blues [mono]
TTITLE6=We Can Sell That Thing [mono]
TTITLE7=3-6 And 9 [mono]
TTITLE8=Jet Black Snake [mono]
TTITLE9=Drunken Gambler [mono]
TTITLE10=The Train Is Coming [mono]
TTITLE11=Under Eyed Woman [mono]
TTITLE12=Pistol Shootin' Blues [mono]
TTITLE13=Low As A Toad [mono]
TTITLE14=Third Degree Blues [mono]
TTITLE15=Training Camp Blues [mono]
EXTD=
EXTT0=
EXTT1=
EXTT2=
EXTT3=
EXTT4=
EXTT5=
EXTT6=
EXTT7=
EXTT8=
EXTT9=
EXTT10=
EXTT11=
EXTT12=
EXTT13=
EXTT14=
EXTT15=
PLAYORDER=
